<svg version="1.1" id="Layer_1" xmlns="http://www.w3.org/2000/svg" xmlns:xlink="http://www.w3.org/1999/xlink" x="0px" y="0px"
	 width="100%" viewBox="0 0 1024 784" enable-background="new 0 0 1024 784" xml:space="preserve">
<path fill="#000000" opacity="1.000000" stroke="none" 
	d="
M524.648438,367.617096 
	C543.390869,366.453003 561.663635,365.419800 579.677124,361.747894 
	C611.071533,355.348328 641.024780,345.136536 668.802429,328.917114 
	C679.431213,322.710968 687.378418,327.303711 687.376831,339.475128 
	C687.369446,397.966339 687.919067,456.465302 687.126831,514.946045 
	C686.588074,554.716736 672.900208,590.193237 647.134399,620.754395 
	C621.468750,651.196838 589.446411,671.696899 550.354980,679.566406 
	C490.537842,691.608154 438.106445,676.069153 394.040863,633.925110 
	C361.434509,602.740723 344.401794,564.098877 341.499512,519.068848 
	C340.618683,505.402740 341.005127,491.757202 340.965820,478.105652 
	C340.834381,432.446167 340.908325,386.786102 340.890686,341.126282 
	C340.889404,337.771271 340.977539,334.435852 342.640991,331.405670 
	C345.680084,325.869812 352.347229,324.350311 358.719940,328.158325 
	C372.932648,336.651062 387.860474,343.590210 403.415253,349.179321 
	C427.337830,357.775116 451.963043,363.365295 477.279541,365.714966 
	C492.871399,367.162018 508.502960,368.033630 524.648438,367.617096 
M665.817078,398.500000 
	C665.817078,384.456360 665.817078,370.412750 665.817078,356.432892 
	C564.487244,400.985565 464.004456,400.624146 363.055756,356.572968 
	C363.055756,358.385010 363.055237,360.029297 363.055847,361.673584 
	C363.064911,386.495544 363.501343,411.328705 362.851562,436.133392 
	C362.624084,444.817108 365.237457,449.218567 373.052704,453.284149 
	C411.690613,473.384064 452.865356,483.790070 496.028625,486.493713 
	C516.785339,487.793884 537.562805,486.819794 558.290588,483.915344 
	C594.650085,478.820526 628.921692,467.786560 661.190613,450.331390 
	C664.533997,448.522827 665.933350,446.364532 665.878113,442.479279 
	C665.674683,428.155457 665.808838,413.826813 665.817078,398.500000 
M450.718414,556.043762 
	C420.870972,550.444031 392.197144,541.206726 364.513397,528.085327 
	C371.526611,579.421448 396.996704,618.794128 442.321747,642.980774 
	C499.583862,673.537476 555.598816,668.174500 607.350220,629.202209 
	C640.714905,604.076416 659.147705,569.614563 664.961182,527.212952 
	C662.337585,528.290039 660.941467,528.769043 659.628113,529.415894 
	C614.397156,551.691040 566.263428,561.345215 516.162659,561.857117 
	C494.497192,562.078430 472.939117,559.953003 450.718414,556.043762 
M363.110931,492.421143 
	C362.363281,498.518677 363.887878,502.583771 370.160797,505.823761 
	C429.246399,536.341736 491.983002,545.189270 557.344116,537.322571 
	C591.611023,533.198364 624.339661,523.275818 655.311646,507.614441 
	C662.850464,503.802338 667.269714,499.874634 665.960388,490.799133 
	C665.130554,485.047241 665.805359,479.078278 665.805359,473.190063 
	C564.442871,521.051636 464.030640,520.404358 363.478882,473.652100 
	C363.387909,474.002472 363.159821,474.477448 363.156952,474.953796 
	C363.124023,480.451019 363.125244,485.948486 363.110931,492.421143 
z"/>
<path fill="#000000" opacity="1.000000" stroke="none" 
	d="
M654.636230,308.754639 
	C621.878174,324.150299 587.766541,333.417114 552.193298,337.013123 
	C491.184875,343.180298 432.258759,335.262604 376.143494,309.701721 
	C366.433533,305.278748 357.183197,299.972351 348.308167,294.004456 
	C343.112610,290.510773 340.694489,285.829712 340.940491,279.646393 
	C342.766144,233.756104 359.021484,193.994232 391.624847,161.349411 
	C414.871887,138.072769 442.402313,122.011559 474.550690,114.584328 
	C525.116882,102.902054 571.828186,112.269951 614.178528,142.078323 
	C649.351379,166.834778 672.199463,200.399353 682.619873,242.165192 
	C685.761475,254.757050 687.409973,267.624634 687.574280,280.697968 
	C687.650513,286.760193 685.491089,290.881836 680.613892,294.052887 
	C672.359070,299.420013 663.695984,304.053375 654.636230,308.754639 
M633.550720,189.938065 
	C594.157227,143.257355 544.389160,123.211960 484.089325,134.951096 
	C437.693970,143.983307 403.700439,171.361053 380.323486,212.518188 
	C384.674927,215.689804 389.007019,217.018631 393.081573,218.790817 
	C418.615967,229.896851 445.349762,236.488052 472.946625,239.828766 
	C475.858612,240.181274 477.324615,239.647217 478.542999,236.668030 
	C486.205505,217.931915 507.333405,208.624512 526.994751,215.076950 
	C545.568848,221.172577 556.968018,241.381470 552.569214,260.416504 
	C548.592651,277.624634 534.840332,289.629272 517.452148,291.070648 
	C500.500458,292.475861 484.808624,282.813629 478.258972,266.648956 
	C476.998779,263.538696 475.493927,261.712524 471.972504,261.316620 
	C438.656494,257.571198 406.553650,249.340561 376.112488,235.063141 
	C374.789307,234.442551 373.529297,233.487366 371.415222,233.899246 
	C366.682007,246.183609 364.279755,259.153931 363.221222,272.459900 
	C362.902466,276.466766 364.210693,278.855896 367.785217,280.845886 
	C379.454895,287.342651 391.423859,293.154053 403.949677,297.783905 
	C451.706512,315.436005 500.955963,320.300323 551.401306,314.968048 
	C589.607056,310.929535 625.710876,300.188416 659.497437,281.716217 
	C664.229736,279.128937 666.283325,276.213470 665.645813,270.732697 
	C662.205017,241.153610 652.650452,214.046814 633.550720,189.938065 
M498.234497,245.969696 
	C495.890564,254.035690 498.093781,261.624084 504.066925,266.058167 
	C509.658386,270.208923 517.815552,270.469116 523.732788,266.685425 
	C529.833313,262.784546 532.821655,255.627380 531.293518,248.577530 
	C529.739746,241.409485 523.660461,235.863312 516.093445,234.710419 
	C509.403412,233.691147 502.457581,237.846252 498.234497,245.969696 
z"/>
<path fill="#000000" opacity="1.000000" stroke="none" 
	d="
M604.645630,278.976105 
	C595.750122,282.354828 588.363281,280.497620 583.925293,274.030945 
	C579.276917,267.257690 579.641296,258.999268 585.041748,253.364594 
	C589.667725,248.537842 595.265076,246.548874 601.832092,248.722733 
	C608.022827,250.772018 612.064819,255.066788 613.113831,261.510773 
	C614.325256,268.952820 611.712646,274.922852 604.645630,278.976105 
z"/>
</svg>