<svg xmlns="http://www.w3.org/2000/svg" viewBox="134 15 760 760" width="160" height="160" role="img" aria-label="C2PA Verify logo">
  <circle cx="514" cy="395" r="368" fill="#FFFFFF"/>
  <path fill="#000000" d="M524.6,367.6C543.4,366.5 561.7,365.4 579.7,361.7C611.1,355.3 641,345.1 668.8,328.9C679.4,322.7 687.4,327.3 687.4,339.5C687.4,398 687.9,456.5 687.1,514.9C686.6,554.7 672.9,590.2 647.1,620.8C621.5,651.2 589.4,671.7 550.4,679.6C490.5,691.6 438.1,676.1 394,633.9C361.4,602.7 344.4,564.1 341.5,519.1C340.6,505.4 341,491.8 341,478.1C340.8,432.4 340.9,386.8 340.9,341.1C340.9,337.8 341,334.4 342.6,331.4C345.7,325.9 352.3,324.4 358.7,328.2C372.9,336.7 387.9,343.6 403.4,349.2C427.3,357.8 452,363.4 477.3,365.7C492.9,367.2 508.5,368 524.6,367.6M665.8,398.5C665.8,384.5 665.8,370.4 665.8,356.4C564.5,401 464,400.6 363.1,356.6C363.1,358.4 363.1,360 363.1,361.7C363.1,386.5 363.5,411.3 362.9,436.1C362.6,444.8 365.2,449.2 373.1,453.3C411.7,473.4 452.9,483.8 496,486.5C516.8,487.8 537.6,486.8 558.3,483.9C594.7,478.8 628.9,467.8 661.2,450.3C664.5,448.5 665.9,446.4 665.9,442.5C665.7,428.2 665.8,413.8 665.8,398.5M450.7,556C420.9,550.4 392.2,541.2 364.5,528.1C371.5,579.4 397,618.8 442.3,643C499.6,673.5 555.6,668.2 607.4,629.2C640.7,604.1 659.1,569.6 665,527.2C662.3,528.3 660.9,528.8 659.6,529.4C614.4,551.7 566.3,561.3 516.2,561.9C494.5,562.1 472.9,560 450.7,556M363.1,492.4C362.4,498.5 363.9,502.6 370.2,505.8C429.2,536.3 492,545.2 557.3,537.3C591.6,533.2 624.3,523.3 655.3,507.6C662.9,503.8 667.3,499.9 666,490.8C665.1,485 665.8,479.1 665.8,473.2C564.4,521.1 464,520.4 363.5,473.7C363.4,474 363.2,474.5 363.2,475C363.1,480.5 363.1,485.9 363.1,492.4z"/>
  <path fill="#000000" d="M654.6,308.8C621.9,324.2 587.8,333.4 552.2,337C491.2,343.2 432.3,335.3 376.1,309.7C366.4,305.3 357.2,300 348.3,294C343.1,290.5 340.7,285.8 340.9,279.6C342.8,233.8 359,194 391.6,161.3C414.9,138.1 442.4,122 474.6,114.6C525.1,102.9 571.8,112.3 614.2,142.1C649.4,166.8 672.2,200.4 682.6,242.2C685.8,254.8 687.4,267.6 687.6,280.7C687.7,286.8 685.5,290.9 680.6,294.1C672.4,299.4 663.7,304.1 654.6,308.8M633.6,189.9C594.2,143.3 544.4,123.2 484.1,135C437.7,144 403.7,171.4 380.3,212.5C384.7,215.7 389,217 393.1,218.8C418.6,229.9 445.3,236.5 472.9,239.8C475.9,240.2 477.3,239.6 478.5,236.7C486.2,217.9 507.3,208.6 527,215.1C545.6,221.2 557,241.4 552.6,260.4C548.6,277.6 534.8,289.6 517.5,291.1C500.5,292.5 484.8,282.8 478.3,266.6C477,263.5 475.5,261.7 472,261.3C438.7,257.6 406.6,249.3 376.1,235.1C374.8,234.4 373.5,233.5 371.4,233.9C366.7,246.2 364.3,259.2 363.2,272.5C362.9,276.5 364.2,278.9 367.8,280.8C379.5,287.3 391.4,293.2 403.9,297.8C451.7,315.4 501,320.3 551.4,315C589.6,310.9 625.7,300.2 659.5,281.7C664.2,279.1 666.3,276.2 665.6,270.7C662.2,241.2 652.7,214 633.6,189.9M498.2,246C495.9,254 498.1,261.6 504.1,266.1C509.7,270.2 517.8,270.5 523.7,266.7C529.8,262.8 532.8,255.6 531.3,248.6C529.7,241.4 523.7,235.9 516.1,234.7C509.4,233.7 502.5,237.8 498.2,246z"/>
  <path fill="#000000" d="M604.6,279C595.8,282.4 588.4,280.5 583.9,274C579.3,267.3 579.6,259 585,253.4C589.7,248.5 595.3,246.5 601.8,248.7C608,250.8 612.1,255.1 613.1,261.5C614.3,269 611.7,274.9 604.6,279z"/>
</svg>
